<svg width="531" height="453" viewBox="0 0 531 453" fill="none" xmlns="http://www.w3.org/2000/svg">
<mask id="path-2-outside-1_1_480" maskUnits="userSpaceOnUse" x="0.449158" y="33.5509" width="496" height="386" fill="black">
<rect fill="white" x="0.449158" y="33.5509" width="496" height="386"/>
<path fill-rule="evenodd" clip-rule="evenodd" d="M93.3813 418.449C91.7245 418.449 90.3813 417.106 90.3813 415.449L90.3813 282.306C90.3813 280.074 88.0217 278.61 85.9542 279.451C78.6287 282.434 70.5598 284.085 62.0848 284.085C28.5966 284.085 1.44916 258.303 1.44916 226.5C1.44915 194.697 28.5966 168.915 62.0847 168.915C70.5597 168.915 78.6287 170.567 85.9542 173.549C88.0217 174.39 90.3814 172.927 90.3814 170.694L90.3814 37.5509C90.3814 35.894 91.7245 34.5509 93.3814 34.5509L476.619 34.5509C486.56 34.5509 494.619 42.6098 494.619 52.5509V415.449C494.619 417.106 493.276 418.449 491.619 418.449H351.245C348.957 418.449 347.491 415.976 348.418 413.884C351.456 407.023 353.136 399.486 353.136 391.576C353.136 359.773 325.988 333.992 292.5 333.992C259.012 333.992 231.864 359.773 231.864 391.576C231.864 399.486 233.544 407.023 236.582 413.884C237.509 415.976 236.043 418.449 233.755 418.449H93.3813Z"/>
</mask>
<path fill-rule="evenodd" clip-rule="evenodd" d="M93.3813 418.449C91.7245 418.449 90.3813 417.106 90.3813 415.449L90.3813 282.306C90.3813 280.074 88.0217 278.61 85.9542 279.451C78.6287 282.434 70.5598 284.085 62.0848 284.085C28.5966 284.085 1.44916 258.303 1.44916 226.5C1.44915 194.697 28.5966 168.915 62.0847 168.915C70.5597 168.915 78.6287 170.567 85.9542 173.549C88.0217 174.39 90.3814 172.927 90.3814 170.694L90.3814 37.5509C90.3814 35.894 91.7245 34.5509 93.3814 34.5509L476.619 34.5509C486.56 34.5509 494.619 42.6098 494.619 52.5509V415.449C494.619 417.106 493.276 418.449 491.619 418.449H351.245C348.957 418.449 347.491 415.976 348.418 413.884C351.456 407.023 353.136 399.486 353.136 391.576C353.136 359.773 325.988 333.992 292.5 333.992C259.012 333.992 231.864 359.773 231.864 391.576C231.864 399.486 233.544 407.023 236.582 413.884C237.509 415.976 236.043 418.449 233.755 418.449H93.3813Z" fill="white"/>
<path d="M1.44916 226.5L2.44916 226.5L2.44916 226.5L1.44916 226.5ZM476.619 34.5509L476.619 33.5509L476.619 34.5509ZM236.582 413.884L237.496 413.479L236.582 413.884ZM348.418 413.884L347.504 413.479L348.418 413.884ZM85.9542 173.549L85.5772 174.475L85.9542 173.549ZM85.9542 279.451L86.3312 280.378L85.9542 279.451ZM89.3813 282.306L89.3813 415.449H91.3813L91.3813 282.306H89.3813ZM62.0848 285.085C70.6904 285.085 78.8872 283.408 86.3312 280.378L85.5772 278.525C78.3701 281.459 70.4291 283.085 62.0848 283.085V285.085ZM0.449158 226.5C0.449158 258.904 28.0936 285.085 62.0848 285.085V283.085C29.0996 283.085 2.44916 257.703 2.44916 226.5H0.449158ZM62.0847 167.915C28.0936 167.915 0.44915 194.097 0.449158 226.5L2.44916 226.5C2.44915 195.297 29.0996 169.915 62.0847 169.915V167.915ZM86.3313 172.623C78.8872 169.592 70.6904 167.915 62.0847 167.915V169.915C70.4291 169.915 78.3701 171.541 85.5772 174.475L86.3313 172.623ZM89.3814 37.5509L89.3814 170.694L91.3814 170.694L91.3814 37.5509L89.3814 37.5509ZM476.619 33.5509L93.3814 33.5509L93.3814 35.5509L476.619 35.5509L476.619 33.5509ZM495.619 52.5509C495.619 42.0575 487.112 33.5509 476.619 33.5509L476.619 35.5509C486.007 35.5509 493.619 43.1621 493.619 52.5509H495.619ZM495.619 415.449V52.5509H493.619V415.449H495.619ZM351.245 419.449H491.619V417.449H351.245V419.449ZM352.136 391.576C352.136 399.343 350.487 406.742 347.504 413.479L349.333 414.289C352.426 407.304 354.136 399.629 354.136 391.576H352.136ZM292.5 334.992C325.485 334.992 352.136 360.373 352.136 391.576H354.136C354.136 359.173 326.491 332.992 292.5 332.992V334.992ZM232.864 391.576C232.864 360.373 259.515 334.992 292.5 334.992V332.992C258.509 332.992 230.864 359.173 230.864 391.576H232.864ZM237.496 413.479C234.513 406.742 232.864 399.343 232.864 391.576H230.864C230.864 399.629 232.574 407.304 235.667 414.289L237.496 413.479ZM93.3813 419.449H233.755V417.449H93.3813V419.449ZM235.667 414.289C236.331 415.786 235.249 417.449 233.755 417.449V419.449C236.838 419.449 238.686 416.166 237.496 413.479L235.667 414.289ZM351.245 417.449C349.751 417.449 348.669 415.786 349.333 414.289L347.504 413.479C346.314 416.166 348.162 419.449 351.245 419.449V417.449ZM493.619 415.449C493.619 416.554 492.723 417.449 491.619 417.449V419.449C493.828 419.449 495.619 417.658 495.619 415.449H493.619ZM91.3814 37.5509C91.3814 36.4463 92.2768 35.5509 93.3814 35.5509L93.3814 33.5509C91.1722 33.5509 89.3814 35.3418 89.3814 37.5509L91.3814 37.5509ZM89.3813 415.449C89.3813 417.658 91.1722 419.449 93.3813 419.449V417.449C92.2768 417.449 91.3813 416.554 91.3813 415.449H89.3813ZM85.5772 174.475C88.2456 175.561 91.3814 173.697 91.3814 170.694L89.3814 170.694C89.3814 172.156 87.7978 173.22 86.3313 172.623L85.5772 174.475ZM91.3813 282.306C91.3813 279.303 88.2456 277.439 85.5772 278.525L86.3312 280.378C87.7978 279.781 89.3813 280.844 89.3813 282.306H91.3813Z" fill="black" mask="url(#path-2-outside-1_1_480)"/>
</svg>
